<svg id="visual" viewBox="0 0 900 600" width="900" height="600" xmlns="http://www.w3.org/2000/svg" xmlns:xlink="http://www.w3.org/1999/xlink" version="1.1"><path d="M0 195L13.7 199.2C27.3 203.3 54.7 211.7 82 195.8C109.3 180 136.7 140 163.8 132.7C191 125.3 218 150.7 245.2 167C272.3 183.3 299.7 190.7 327 177.2C354.3 163.7 381.7 129.3 409 121.7C436.3 114 463.7 133 491 134.3C518.3 135.7 545.7 119.3 573 118.5C600.3 117.7 627.7 132.3 654.8 142C682 151.7 709 156.3 736.2 148.5C763.3 140.7 790.7 120.3 818 107.8C845.3 95.3 872.7 90.7 886.3 88.3L900 86L900 0L886.3 0C872.7 0 845.3 0 818 0C790.7 0 763.3 0 736.2 0C709 0 682 0 654.8 0C627.7 0 600.3 0 573 0C545.7 0 518.3 0 491 0C463.7 0 436.3 0 409 0C381.7 0 354.3 0 327 0C299.7 0 272.3 0 245.2 0C218 0 191 0 163.8 0C136.7 0 109.3 0 82 0C54.7 0 27.3 0 13.7 0L0 0Z" fill="#1d1d1d" stroke-linecap="round" stroke-linejoin="miter"></path></svg>